<svg xmlns="http://www.w3.org/2000/svg" width="40" height="40" viewBox="0 0 40 40">
    <g fill="none" fill-rule="evenodd">
        <circle cx="20" cy="20" r="20" fill="#272727"/>
        <path fill="#FFF" d="M13.014 22.863L13 25.57c0 .152.056.305.167.416.111.11.25.166.403.166l2.697-.014a.557.557 0 0 0 .403-.166l9.314-9.295a.585.585 0 0 0 0-.818l-2.669-2.692a.588.588 0 0 0-.82 0l-1.863 1.873-7.451 7.422a.617.617 0 0 0-.167.402zm9.898-8.476l1.877 1.873-1.057 1.054-1.877-1.872 1.057-1.055zm-8.744 8.726l6.867-6.853 1.877 1.873-6.867 6.839-1.891.014.014-1.873z"/>
    </g>
</svg>
