<?xml version="1.0" encoding="utf-8"?>
<!-- Generator: Adobe Illustrator 22.1.0, SVG Export Plug-In . SVG Version: 6.00 Build 0)  -->
<svg version="1.1" id="Layer_1" xmlns="http://www.w3.org/2000/svg" xmlns:xlink="http://www.w3.org/1999/xlink" x="0px" y="0px"
	 viewBox="0 0 40 40" style="enable-background:new 0 0 40 40;" xml:space="preserve">
<style type="text/css">
	.st0{fill:#272727;}
	.st1{fill:#FFFFFF;}
</style>
<g>
	<circle class="st0" cx="20" cy="20" r="20"/>
	<path class="st1" d="M13,22.9l0,2.7c0,0.2,0.1,0.3,0.2,0.4c0.1,0.1,0.2,0.2,0.4,0.2l2.7,0c0.2,0,0.3-0.1,0.4-0.2l9.3-9.3
		c0.2-0.2,0.2-0.6,0-0.8l-2.7-2.7c-0.2-0.2-0.6-0.2-0.8,0L20.6,15l-7.5,7.4C13.1,22.6,13,22.7,13,22.9L13,22.9z M22.9,14.4l1.9,1.9
		l-1.1,1.1l-1.9-1.9L22.9,14.4z M14.2,23.1l6.9-6.9l1.9,1.9L16,25l-1.9,0L14.2,23.1z"/>
</g>
</svg>
