<?xml version="1.0" encoding="utf-8"?>
<!-- Generator: Adobe Illustrator 22.1.0, SVG Export Plug-In . SVG Version: 6.00 Build 0)  -->
<svg version="1.1" xmlns="http://www.w3.org/2000/svg" xmlns:xlink="http://www.w3.org/1999/xlink" x="0px" y="0px"
	 viewBox="0 0 260 80" style="enable-background:new 0 0 260 80;" xml:space="preserve">
<g id="Layer_1">
</g>
<g id="info">
	<g>
		<g>
			<path d="M11.1,26.8V14.6c0-7,5.7-10.9,11.4-10.9C28.4,3.7,34,7.6,34,14.6v12.2c0,7-5.7,10.9-11.5,10.9
				C16.7,37.7,11.1,33.8,11.1,26.8z M26.7,26.4V15.1c0-2.7-1.7-4.4-4.2-4.4c-2.3,0-4.1,1.7-4.1,4.4v11.2c0,2.7,1.8,4.4,4.1,4.4
				C24.9,30.8,26.7,29.1,26.7,26.4z"/>
			<path d="M34.1,27.1h6.8c0.2,2.1,1.7,3.6,4.2,3.6c2.7,0,4.3-1.9,4.3-4.1s-1.6-4.2-4.4-4.2c-1.9,0-3,1-3.5,1.7h-7l1.4-19.9h19v6.6
				H42.2l-0.5,6.7H42c0.8-0.5,2.4-1.5,4.7-1.5c6,0,10.2,5,10.2,10.5c0,6.1-4.5,11.1-11.6,11.1C38.4,37.7,34.2,33,34.1,27.1z"/>
			<path d="M61.9,31.4c0-4.4,1.9-7.1,6.2-9.8l6.1-3.8c1.6-1,2.6-2.1,2.6-3.8c0-1.9-1.5-3.5-4-3.5c-2.5,0-4.1,1.9-4.1,3.9h-6.8
				c0-5.5,3.8-10.7,11-10.7c7.1,0,11.4,4.5,11.4,10c0,4.5-2.2,7.3-6.1,9.6l-6.6,3.8c-1.6,1-2.2,2-2.2,3.2v0.4h14.9v6.4H61.9V31.4z"
				/>
			<path d="M96.8,11.2v-0.3H83V4.3h21.8v6.3L93.7,37.1h-8.1L96.8,11.2z"/>
			<path d="M109.7,19.8h37.6v6h-37.6V19.8z"/>
			<path d="M152.9,26.8V14.6c0-7,5.7-10.9,11.4-10.9c5.9,0,11.5,3.9,11.5,10.9v12.2c0,7-5.7,10.9-11.5,10.9
				C158.5,37.7,152.9,33.8,152.9,26.8z M168.5,26.4V15.1c0-2.7-1.7-4.4-4.2-4.4c-2.3,0-4.1,1.7-4.1,4.4v11.2c0,2.7,1.8,4.4,4.1,4.4
				C166.8,30.8,168.5,29.1,168.5,26.4z"/>
			<path d="M175.5,26.4c0-2.4,0.7-4.5,1.7-6.4l8.7-15.8h8.6l-7.1,11.6l0.2,0.2c0.4-0.1,0.9-0.2,1.5-0.2c4.1,0,10,3.1,10,10.6
				c0,6.7-5.6,11.3-11.8,11.3S175.5,33.2,175.5,26.4z M191.6,26.4c0-2.4-1.8-4.4-4.4-4.4c-2.5,0-4.3,2-4.3,4.4s1.8,4.3,4.3,4.3
				C189.7,30.8,191.6,28.8,191.6,26.4z"/>
			<path d="M204.9,26.8V14.6c0-7,5.7-10.9,11.4-10.9c5.9,0,11.5,3.9,11.5,10.9v12.2c0,7-5.7,10.9-11.5,10.9
				C210.5,37.7,204.9,33.8,204.9,26.8z M220.5,26.4V15.1c0-2.7-1.7-4.4-4.2-4.4c-2.3,0-4.1,1.7-4.1,4.4v11.2c0,2.7,1.8,4.4,4.1,4.4
				C218.7,30.8,220.5,29.1,220.5,26.4z"/>
			<path d="M240.9,11.2v-0.3h-13.8V4.3h21.8v6.3l-11.2,26.5h-8.1L240.9,11.2z"/>
		</g>
		<g>
			<path d="M13.4,62.7h2l1.9,7.2h0.1l2.2-7.2h2l2.2,7.2H24l1.9-7.2h2l-2.8,9.4h-2.3l-2.2-7h-0.1l-2.2,7h-2.2L13.4,62.7z"/>
			<path d="M26.9,62.7h2l1.9,7.2h0.1l2.2-7.2h2l2.2,7.2h0.1l1.9-7.2h2l-2.8,9.4h-2.3l-2.2-7h-0.1l-2.2,7h-2.2L26.9,62.7z"/>
			<path d="M40.3,62.7h2l1.9,7.2h0.1l2.2-7.2h2l2.2,7.2H51l1.9-7.2h2l-2.8,9.4h-2.3l-2.2-7h-0.1l-2.2,7h-2.2L40.3,62.7z"/>
			<path d="M57.1,71.2c0-0.7,0.6-1.2,1.2-1.2c0.7,0,1.2,0.5,1.2,1.2s-0.5,1.2-1.2,1.2C57.7,72.4,57.1,71.9,57.1,71.2z"/>
			<path d="M62,67.5c0-2.8,2.1-4.9,5-4.9s4.9,2.1,4.9,4.9s-2.1,4.9-5,4.9C64,72.4,62,70.3,62,67.5z M70,67.5c0-1.9-1.3-3.2-3-3.2
				s-3,1.4-3,3.2c0,1.9,1.3,3.2,3,3.2C68.7,70.7,70,69.3,70,67.5z"/>
			<path d="M77.9,72.2l-2.7-4.4l-1.5,1.6v2.8h-1.9V58.7h1.9v8.1h0.1l3.6-4h2.4l-3.3,3.6l3.5,5.8H77.9z"/>
			<path d="M80.5,69.2v-4.9h-1.7v-1.5h1.2c0.3,0,0.6-0.2,0.6-0.6v-2.1h1.8v2.7h2.7v1.5h-2.7v4.8c0,0.9,0.4,1.4,1.4,1.4h1.3v1.6h-1.6
				C81.6,72.2,80.5,71.1,80.5,69.2z"/>
			<path d="M87.6,71.2c0-0.7,0.6-1.2,1.2-1.2c0.7,0,1.2,0.5,1.2,1.2s-0.5,1.2-1.2,1.2C88.1,72.4,87.6,71.9,87.6,71.2z"/>
			<path d="M93.1,69.8V58.7H95v11c0,0.5,0.3,0.8,0.7,0.8h0.4v1.7h-0.8C93.9,72.2,93.1,71.3,93.1,69.8z"/>
			<path d="M96.7,69.2v-4.9h-1.7v-1.5h1.2c0.3,0,0.6-0.2,0.6-0.6v-2.1h1.8v2.7h2.7v1.5h-2.7v4.8c0,0.9,0.4,1.4,1.4,1.4h1.3v1.6h-1.6
				C97.9,72.2,96.7,71.1,96.7,69.2z"/>
		</g>
		<g>
			<path d="M152.6,62.7h2l2.5,7.1h0.1l2.5-7.1h2l-3.6,9.4h-2.1L152.6,62.7z"/>
			<path d="M161.2,60.1c0-0.7,0.5-1.2,1.2-1.2c0.7,0,1.3,0.5,1.3,1.2c0,0.7-0.5,1.2-1.3,1.2C161.7,61.3,161.2,60.8,161.2,60.1z
				 M161.5,62.7h1.9v9.4h-1.9V62.7z"/>
			<path d="M163.3,69.4h1.8c0.1,1,0.8,1.5,2.1,1.5c1.2,0,1.9-0.6,1.9-1.4c0-2.3-5.5-0.4-5.5-4.2c0-1.6,1.4-2.8,3.6-2.8
				c1.9,0,3.4,1,3.5,2.8h-1.7c-0.1-0.8-0.7-1.3-1.9-1.3c-1.1,0-1.7,0.5-1.7,1.2c0,2.1,5.6,0.1,5.6,4.1c0,1.8-1.5,3-3.8,3
				C164.7,72.4,163.4,71.2,163.3,69.4z"/>
			<path d="M177.1,72.2l-2.7-4.4l-1.5,1.6v2.8h-1.9V58.7h1.9v8.1h0.1l3.6-4h2.4l-3.3,3.6l3.5,5.8H177.1z"/>
			<path d="M177.6,67.5c0-2.9,1.9-5,4.5-5c1.8,0,2.8,1.1,3.1,1.6h0.1v-1.4h1.9v9.4h-1.9v-1.3h-0.1c-0.3,0.4-1.2,1.6-3,1.6
				C179.5,72.4,177.6,70.4,177.6,67.5z M185.4,67.5c0-2-1.3-3.2-2.9-3.2c-1.7,0-2.9,1.3-2.9,3.2c0,2,1.2,3.2,2.9,3.2
				C184.3,70.7,185.4,69.2,185.4,67.5z"/>
			<path d="M187.1,69.4h1.8c0.1,1,0.8,1.5,2.1,1.5c1.2,0,1.9-0.6,1.9-1.4c0-2.3-5.5-0.4-5.5-4.2c0-1.6,1.4-2.8,3.6-2.8
				c1.9,0,3.4,1,3.5,2.8h-1.7c-0.1-0.8-0.7-1.3-1.9-1.3c-1.1,0-1.7,0.5-1.7,1.2c0,2.1,5.6,0.1,5.6,4.1c0,1.8-1.5,3-3.8,3
				C188.5,72.4,187.3,71.2,187.1,69.4z"/>
			<path d="M196.9,67.5c0-2.9,1.9-5,4.5-5c1.8,0,2.8,1.1,3.1,1.6h0.1v-1.4h1.9v9.4h-1.9v-1.3h-0.1c-0.3,0.4-1.2,1.6-3,1.6
				C198.8,72.4,196.9,70.4,196.9,67.5z M204.7,67.5c0-2-1.3-3.2-2.9-3.2c-1.7,0-2.9,1.3-2.9,3.2c0,2,1.2,3.2,2.9,3.2
				C203.6,70.7,204.7,69.2,204.7,67.5z"/>
			<path d="M207,62.7h1.8v1.3h0.1c0.3-0.4,1.2-1.6,3-1.6c2.7,0,4.6,2,4.6,4.9s-1.9,5-4.5,5c-1.8,0-2.8-1.1-3.1-1.6h-0.1v5.5H207
				V62.7z M214.6,67.4c0-2-1.2-3.2-2.9-3.2c-1.8,0-2.9,1.4-2.9,3.2c0,2,1.3,3.2,2.9,3.2C213.4,70.7,214.6,69.3,214.6,67.4z"/>
			<path d="M216.3,60.1c0-0.7,0.5-1.2,1.2-1.2c0.7,0,1.3,0.5,1.3,1.2c0,0.7-0.5,1.2-1.3,1.2C216.8,61.3,216.3,60.8,216.3,60.1z
				 M216.6,62.7h1.9v9.4h-1.9V62.7z"/>
			<path d="M218.3,67.5c0-3,2-5,4.7-5c2.9,0,4.6,2.2,4.6,4.8V68h-7.4c0.1,1.6,1.2,2.8,2.9,2.8c1.2,0,2.2-0.6,2.6-1.5h1.8
				c-0.5,1.8-2.2,3.1-4.5,3.1C220.2,72.4,218.3,70.3,218.3,67.5z M225.7,66.6c-0.1-1.6-1.3-2.5-2.7-2.5c-1.4,0-2.6,1-2.8,2.5H225.7z
				"/>
			<path d="M228.8,74.6h0.7c1,0,1.6-0.6,1.6-1.6V62.7h1.9V73c0,2.1-1.4,3.3-3.3,3.3h-0.8V74.6z M230.8,60.1c0-0.7,0.5-1.2,1.2-1.2
				c0.7,0,1.3,0.5,1.3,1.2c0,0.7-0.5,1.2-1.3,1.2C231.3,61.3,230.8,60.8,230.8,60.1z"/>
			<path d="M241.8,73.2c-0.2,0.3-0.3,0.4-0.3,0.7c0,0.3,0.3,0.5,0.6,0.5h0.6v1.3h-1.1c-0.9,0-1.7-0.5-1.7-1.5c0-0.5,0.2-0.9,0.6-1.3
				l0.6-0.7h-0.3v-1.3h-0.1c-0.3,0.4-1.2,1.6-3,1.6c-2.7,0-4.6-2-4.6-4.9c0-2.9,1.9-5,4.5-5c1.8,0,2.8,1.1,3.1,1.6h0.1v-1.4h1.9v9.4
				L241.8,73.2z M240.8,67.5c0-2-1.3-3.2-2.9-3.2c-1.7,0-2.9,1.3-2.9,3.2c0,2,1.2,3.2,2.9,3.2C239.7,70.7,240.8,69.2,240.8,67.5z"/>
		</g>
	</g>
</g>
</svg>
