<svg xmlns="http://www.w3.org/2000/svg" width="186" height="120" viewBox="0 0 186 120">
    <defs>
        <linearGradient id="a" x1="11.199%" x2="78.884%" y1="50%" y2="50%">
            <stop offset="0%" stop-color="#FFF"/>
            <stop offset="100%"/>
        </linearGradient>
    </defs>
    <g fill="none" fill-rule="evenodd">
        <g>
            <path fill="url(#a)" d="M150.023 65c-3.98 0-6.531-3.439-11.405-11.284C133.188 44.973 125.753 33 110.274 33c-15.478 0-22.915 11.973-28.345 20.716C77.056 61.562 74.504 65 70.524 65c-3.979 0-6.53-3.438-11.402-11.284C53.693 44.974 46.257 33 30.78 33 15.303 33 7.867 44.974 2.438 53.716-2.435 61.562-4.986 65-8.966 65c-.356 0-.698-.037-1.034-.093v20.069c.342.01.684.024 1.034.024 15.478 0 22.914-11.973 28.343-20.716C24.25 56.44 26.801 53 30.78 53c3.98 0 6.53 3.439 11.402 11.284C47.612 73.027 55.047 85 70.524 85 86.003 85 93.44 73.028 98.87 64.285 103.742 56.44 106.293 53 110.274 53c3.98 0 6.532 3.44 11.405 11.285C127.109 73.028 134.545 85 150.023 85c5.51 0 9.977-4.477 9.977-10 0-5.522-4.467-10-9.977-10"/>
            <circle cx="150" cy="75" r="10" fill="#000"/>
        </g>
        <g stroke="#000">
            <g stroke-linecap="round" stroke-linejoin="round" stroke-width="1.2">
                <path d="M74 44.395s7.382-13.602 19.756-20.275c7.705-4.155 13.816-4.511 17.917-3.725 3.787.726 8.205 2.817 11.258 4.698"/>
                <path d="M123.464 20.395l-.402 5.004-4.087 2.446"/>
            </g>
            <g transform="translate(115 40)">
                <circle cx="35" cy="35" r="18" opacity=".5"/>
                <circle cx="35" cy="35" r="26" opacity=".087"/>
                <circle cx="35" cy="35" r="35" opacity=".05"/>
            </g>
        </g>
    </g>
</svg>
