<svg xmlns="http://www.w3.org/2000/svg" width="15" height="15" viewBox="0 0 15 15">
    <g fill="#FFF" fill-rule="nonzero" opacity=".5">
        <circle cx="7.5" cy="11.089" r="1"/>
        <path d="M7.5 0A7.496 7.496 0 0 0 0 7.5C0 11.645 3.354 15 7.5 15c4.145 0 7.5-3.354 7.5-7.5C15 3.355 11.646 0 7.5 0zm0 13.828A6.325 6.325 0 0 1 1.172 7.5 6.325 6.325 0 0 1 7.5 1.172 6.325 6.325 0 0 1 13.828 7.5 6.325 6.325 0 0 1 7.5 13.828z"/>
        <path d="M7.5 3.765a2.346 2.346 0 0 0-2.344 2.343.586.586 0 1 0 1.172 0c0-.646.526-1.171 1.172-1.171.646 0 1.172.525 1.172 1.171 0 .647-.526 1.172-1.172 1.172a.586.586 0 0 0-.586.586v1.465a.586.586 0 1 0 1.172 0v-.953a2.348 2.348 0 0 0 1.758-2.27A2.346 2.346 0 0 0 7.5 3.765z"/>
    </g>
</svg>
