<svg xmlns="http://www.w3.org/2000/svg" width="22" height="22" viewBox="0 0 22 22">
    <path fill="#000" fill-rule="nonzero" d="M17.13 13.679l.147-.064h.217l.146.064.399.43c.42.452.863 1.001 1.253 1.572.726 1.06 1.108 1.97 1.108 2.722a3.01 3.01 0 0 1-3.015 2.997 3.01 3.01 0 0 1-3.014-2.997c0-.752.382-1.661 1.108-2.722.39-.57.832-1.12 1.253-1.573l.399-.43zm-1.378 4.724a1.63 1.63 0 0 0 1.633 1.623c.9 0 1.634-.728 1.634-1.623 0-.605-.58-1.655-1.478-2.763l-.156-.192-.155.192c-.898 1.108-1.478 2.158-1.478 2.763zM6.48 3.15L4.83 1.515A.886.886 0 0 1 4.832.259a.892.892 0 0 1 1.258 0l1.895 1.882 6.005 5.966 2.992 2.972.06.142v.21l-.06.142-6.603 6.56a3.034 3.034 0 0 1-2.152.888 3.034 3.034 0 0 1-2.153-.888L.89 12.985a3.02 3.02 0 0 1 0-4.283L6.479 3.15zm-4.33 8.578l5.183 5.148c.473.47 1.315.47 1.789 0l5.587-5.55-1.976-1.963-4.992-4.96L2.15 9.958a1.249 1.249 0 0 0 0 1.77z"/>
</svg>
