<svg xmlns="http://www.w3.org/2000/svg" width="186" height="120" viewBox="0 0 186 120">
    <defs>
        <linearGradient id="a" x1="11.199%" x2="78.884%" y1="50%" y2="50%">
            <stop offset="0%" stop-color="#FFF"/>
            <stop offset="100%"/>
        </linearGradient>
    </defs>
    <g fill="none" fill-rule="evenodd">
        <g transform="translate(3 14)">
            <path fill="url(#a)" d="M147.546 59.066c-3.135-2.498-7.169-15.466-9.363-22.519C132.854 19.417 126.815 0 110.251 0S87.648 19.416 82.319 36.547c-2.066 6.641-5.761 18.524-8.803 21.977-3.041-3.453-6.737-15.336-8.802-21.976C59.385 19.416 53.346 0 36.784 0 20.221 0 14.182 19.416 8.853 36.548 6.789 43.188 3.093 55.07.05 58.523L0 58.461v20.538L.051 79c16.564 0 22.603-19.416 27.931-36.547 2.065-6.64 5.761-18.523 8.802-21.975 3.041 3.452 6.736 15.335 8.801 21.975C50.914 59.583 56.953 79 73.515 79c16.565 0 22.603-19.416 27.932-36.547 2.066-6.641 5.763-18.525 8.804-21.976 3.041 3.451 6.739 15.335 8.805 21.976C124.384 59.583 130.423 79 146.987 79c5.53 0 10.013-4.465 10.013-9.975 0-5.321-4.185-9.67-9.454-9.959"/>
            <circle cx="147" cy="69" r="10" fill="#000"/>
        </g>
        <g stroke="#000" stroke-linecap="round" stroke-linejoin="round" stroke-width="1.2">
            <path d="M79.995 34s6.007-12.357 12.914-22.158C97.915 4.738 104.644 2.548 109.02 2c7.978-1 11.869 2.738 15.265 5.112.688.48 1.289.906 1.803 1.223"/>
            <path d="M126.49 3.331l-.403 5.004L122 10.781"/>
        </g>
        <g stroke="#000" transform="translate(115 48)">
            <circle cx="35" cy="35" r="18" opacity=".5"/>
            <circle cx="35" cy="35" r="26" opacity=".087"/>
            <circle cx="35" cy="35" r="35" opacity=".05"/>
        </g>
    </g>
</svg>
