<?xml version="1.0" encoding="utf-8"?>
<!-- Generator: Adobe Illustrator 22.1.0, SVG Export Plug-In . SVG Version: 6.00 Build 0)  -->
<svg version="1.1" id="Layer_1" xmlns="http://www.w3.org/2000/svg" xmlns:xlink="http://www.w3.org/1999/xlink" x="0px" y="0px"
	 viewBox="0 0 40 40" style="enable-background:new 0 0 40 40;" xml:space="preserve">
<style type="text/css">
	.st0{fill:#FFFFFF;}
</style>
<g>
	<polygon class="st0" points="21,16.3 22.9,18.1 16,25 14.2,25 14.2,23.1 	"/>
	<polygon class="st0" points="22.9,14.4 24.8,16.3 23.7,17.3 21.8,15.4 	"/>
	<path class="st0" d="M20,0C9,0,0,9,0,20s9,20,20,20s20-9,20-20S31,0,20,0z M26,16.7L16.7,26c-0.1,0.1-0.2,0.2-0.4,0.2l-2.7,0
		c-0.2,0-0.3-0.1-0.4-0.2c-0.1-0.1-0.2-0.3-0.2-0.4l0-2.7c0-0.1,0.1-0.3,0.2-0.4l7.5-7.4l1.9-1.9c0.2-0.2,0.6-0.2,0.8,0l2.7,2.7
		C26.2,16.1,26.2,16.5,26,16.7z"/>
</g>
</svg>
