<svg xmlns="http://www.w3.org/2000/svg" width="186" height="120" viewBox="0 0 186 120">
    <defs>
        <linearGradient id="a" x1="11.199%" x2="78.884%" y1="50%" y2="50%">
            <stop offset="0%" stop-color="#FFF"/>
            <stop offset="100%"/>
        </linearGradient>
    </defs>
    <g fill="none" fill-rule="evenodd">
        <g transform="translate(42 25.585)">
            <path fill="url(#a)" d="M107.966 29.203c-7.851 0-11.266-2.686-16.435-6.753-6.25-4.916-14.027-11.034-28.787-11.034S40.206 17.534 33.957 22.45c-5.169 4.067-8.584 6.753-16.435 6.753-7.85 0-11.264-2.686-16.431-6.752-.358-.281-.723-.568-1.091-.855v24.172c4.56 2.13 10.174 3.648 17.522 3.648 14.76 0 22.538-6.118 28.787-11.035 5.169-4.067 8.583-6.753 16.435-6.753 7.851 0 11.266 2.686 16.435 6.753 6.249 4.917 14.027 11.035 28.787 11.035 5.542 0 10.034-4.526 10.034-10.107 0-5.58-4.492-10.106-10.034-10.106"/>
            <circle cx="108" cy="39.416" r="10" fill="#000"/>
            <path stroke="#000" stroke-linecap="round" stroke-linejoin="round" stroke-width="1.2" d="M28 15.415s5.998-7.612 17.548-12.6C54.607-1.096 63.495-.036 67.596.75c3.787.727 8.282 2.817 11.335 4.699"/>
            <path stroke="#000" stroke-linecap="round" stroke-linejoin="round" stroke-width="1.2" d="M79.464.75l-.402 5.004L74.975 8.2"/>
        </g>
        <g stroke="#000" transform="translate(115 30)">
            <circle cx="35" cy="35" r="18" opacity=".5"/>
            <circle cx="35" cy="35" r="26" opacity=".087"/>
            <circle cx="35" cy="35" r="35" opacity=".05"/>
        </g>
    </g>
</svg>
