<svg xmlns="http://www.w3.org/2000/svg" width="33" height="22" viewBox="0 0 33 22">
    <path fill="#FFF" fill-rule="nonzero" d="M32.404 9.889h-3.431c-1.055 0-1.006.02-1.172-.426l-.03-.085c-.181-.52-1.024-2.505-1.453-3.419-.81-1.723-2.914-1.424-3.401.768a88.506 88.506 0 0 1-.597 2.456l-.038.15c-.662 2.612-.776 3.079-.863 3.624-.035.224-.21.393-.365.405-.148.01-.301-.137-.393-.625-.124-.667-.352-1.694-.835-3.808l-.011-.05c-.635-2.776-.806-3.544-.883-4.015-.394-2.392-3.47-2.56-3.825-.048-.457 3.218-1.537 11.498-1.57 12.242-.035.794-.923 1.035-1.298.352-.283-.513-.583-2.07-.849-4.254a92.5 92.5 0 0 1-.276-2.612 136.144 136.144 0 0 1-.153-1.782 2.012 2.012 0 0 0-1.746-1.844c-.99-.123-1.853.516-2.128 1.675-.232.972-.805 2.994-.795 2.955-.034.134-.065.263-.094.392-.136.608-.34.847-.491.859-.11.008-.275-.12-.358-.355a11.002 11.002 0 0 1-.272-.923c-.03-.115-.294-1.202-.362-1.437l-.008-.03-.07-.278a2.537 2.537 0 0 0-.15-.41c-.342-.728-1.039-1.148-2.145-1.148H.596A.594.594 0 0 0 0 8.811c0 .327.267.592.596.592h1.746c.653 0 .923.163 1.065.465.03.063.055.135.08.223.015.054.06.242.066.261l.016.06c.06.205.317 1.266.352 1.403.106.409.202.74.303 1.024.251.706.882 1.196 1.578 1.141.762-.06 1.322-.72 1.56-1.782.026-.117.055-.234.086-.358-.016.063.56-1.972.8-2.974.139-.586.451-.818.819-.772.366.045.67.353.705.765a257.306 257.306 0 0 0 .155 1.794c.086.928.178 1.812.28 2.645.287 2.368.597 3.976.985 4.681.971 1.764 3.45 1.092 3.536-.87.03-.684 1.113-8.979 1.56-12.128.156-1.1 1.284-1.038 1.466.074.085.51.25 1.252.898 4.087l.011.05c.478 2.093.705 3.117.826 3.761.193 1.036.836 1.653 1.656 1.59.72-.055 1.334-.648 1.453-1.402.077-.489.199-.986.84-3.518l.039-.15a89.38 89.38 0 0 0 .605-2.49c.247-1.112.839-1.196 1.155-.522.413.879 1.241 2.83 1.406 3.304l.04.11c.386 1.037.791 1.199 2.29 1.199h3.43c.33 0 .597-.265.597-.593a.594.594 0 0 0-.596-.592z"/>
</svg>
