<?xml version="1.0" encoding="utf-8"?>
<!-- Generator: Adobe Illustrator 22.1.0, SVG Export Plug-In . SVG Version: 6.00 Build 0)  -->
<svg version="1.1" id="Layer_1" xmlns="http://www.w3.org/2000/svg" xmlns:xlink="http://www.w3.org/1999/xlink" x="0px" y="0px"
	 viewBox="0 0 100 40" style="enable-background:new 0 0 100 40;" xml:space="preserve">
<g id="Layer_1_1_">
</g>
<g id="info">
	<g>
		<g>
			<path d="M5.3,15v-4.6c0-2.6,2.1-4.1,4.3-4.1c2.2,0,4.3,1.5,4.3,4.1V15c0,2.6-2.1,4.1-4.3,4.1C7.4,19.1,5.3,17.7,5.3,15z
				 M11.2,14.9v-4.2c0-1-0.6-1.7-1.6-1.7C8.7,9,8,9.6,8,10.6v4.2c0,1,0.7,1.7,1.5,1.7C10.5,16.5,11.2,15.9,11.2,14.9z"/>
			<path d="M13.9,15.1h2.6c0.1,0.8,0.6,1.4,1.6,1.4c1,0,1.6-0.7,1.6-1.5c0-0.8-0.6-1.6-1.7-1.6c-0.7,0-1.1,0.4-1.3,0.6h-2.6l0.5-7.5
				h7.1V9H17l-0.2,2.5h0.1c0.3-0.2,0.9-0.6,1.8-0.6c2.3,0,3.8,1.9,3.8,3.9c0,2.3-1.7,4.2-4.4,4.2C15.6,19.1,14,17.4,13.9,15.1z"/>
			<path d="M24.4,16.8c0-1.7,0.7-2.7,2.3-3.7l2.3-1.4c0.6-0.4,1-0.8,1-1.4c0-0.7-0.6-1.3-1.5-1.3c-0.9,0-1.5,0.7-1.5,1.5h-2.6
				c0-2.1,1.4-4,4.1-4c2.7,0,4.3,1.7,4.3,3.8c0,1.7-0.8,2.7-2.3,3.6L28,15.1c-0.6,0.4-0.8,0.8-0.8,1.2v0.2h5.6v2.4h-8.4V16.8z"/>
			<path d="M37.5,9.2V9.1h-5.2V6.6h8.2v2.4l-4.2,10h-3L37.5,9.2z"/>
			<path d="M42.4,12.4h14.1v2.3H42.4C42.4,14.7,42.4,12.4,42.4,12.4z"/>
			<path d="M58.6,15v-4.6c0-2.6,2.1-4.1,4.3-4.1c2.2,0,4.3,1.5,4.3,4.1V15c0,2.6-2.1,4.1-4.3,4.1C60.7,19.1,58.6,17.7,58.6,15z
				 M64.5,14.9v-4.2c0-1-0.6-1.7-1.6-1.7c-0.9,0-1.5,0.6-1.5,1.7v4.2c0,1,0.7,1.7,1.5,1.7C63.8,16.5,64.5,15.9,64.5,14.9z"/>
			<path d="M67.1,14.9c0-0.9,0.3-1.7,0.6-2.4L71,6.5h3.2l-2.7,4.4l0.1,0.1c0.2,0,0.3-0.1,0.6-0.1c1.5,0,3.8,1.2,3.8,4
				c0,2.5-2.1,4.2-4.4,4.2C69.2,19.1,67.1,17.4,67.1,14.9z M73.2,14.9c0-0.9-0.7-1.7-1.7-1.7c-0.9,0-1.6,0.8-1.6,1.7
				c0,0.9,0.7,1.6,1.6,1.6C72.4,16.5,73.2,15.8,73.2,14.9z"/>
			<path d="M78.2,15v-4.6c0-2.6,2.1-4.1,4.3-4.1c2.2,0,4.3,1.5,4.3,4.1V15c0,2.6-2.1,4.1-4.3,4.1C80.3,19.1,78.2,17.7,78.2,15z
				 M84,14.9v-4.2c0-1-0.6-1.7-1.6-1.7c-0.9,0-1.5,0.6-1.5,1.7v4.2c0,1,0.7,1.7,1.5,1.7C83.3,16.5,84,15.9,84,14.9z"/>
			<path d="M91.7,9.2V9.1h-5.2V6.6h8.2v2.4l-4.2,10h-3L91.7,9.2z"/>
		</g>
		<g>
			<path d="M6.2,28.5h0.8l0.7,2.7h0l0.8-2.7h0.8l0.8,2.7h0.1l0.7-2.7h0.8l-1.1,3.5H9.7l-0.8-2.6h0L8,32.1H7.2L6.2,28.5z"/>
			<path d="M11.2,28.5H12l0.7,2.7h0l0.8-2.7h0.8l0.8,2.7h0l0.7-2.7h0.8l-1.1,3.5h-0.9l-0.8-2.6h0L13,32.1h-0.8L11.2,28.5z"/>
			<path d="M16.3,28.5H17l0.7,2.7h0l0.8-2.7h0.8l0.8,2.7h0.1l0.7-2.7h0.8l-1.1,3.5h-0.9L19,29.4h0l-0.8,2.6h-0.8L16.3,28.5z"/>
			<path d="M22.6,31.7c0-0.3,0.2-0.5,0.5-0.5c0.3,0,0.5,0.2,0.5,0.5s-0.2,0.5-0.5,0.5C22.8,32.2,22.6,32,22.6,31.7z"/>
			<path d="M24.4,30.3c0-1.1,0.8-1.8,1.9-1.8s1.8,0.8,1.8,1.8s-0.8,1.8-1.9,1.8S24.4,31.4,24.4,30.3z M27.4,30.3
				c0-0.7-0.5-1.2-1.1-1.2s-1.1,0.5-1.1,1.2c0,0.7,0.5,1.2,1.1,1.2S27.4,31,27.4,30.3z"/>
			<path d="M30.4,32.1l-1-1.7l-0.6,0.6v1.1h-0.7V27h0.7v3h0l1.4-1.5h0.9l-1.2,1.4l1.3,2.2C31.2,32.1,30.4,32.1,30.4,32.1z"/>
			<path d="M31.4,31v-1.8h-0.6v-0.6h0.5c0.1,0,0.2-0.1,0.2-0.2v-0.8h0.7v1h1v0.6h-1v1.8c0,0.3,0.2,0.5,0.5,0.5h0.5v0.6h-0.6
				C31.8,32.1,31.4,31.7,31.4,31z"/>
			<path d="M34.1,31.7c0-0.3,0.2-0.5,0.5-0.5c0.3,0,0.5,0.2,0.5,0.5s-0.2,0.5-0.5,0.5C34.2,32.2,34.1,32,34.1,31.7z"/>
			<path d="M36.1,31.2V27h0.7v4.1c0,0.2,0.1,0.3,0.3,0.3h0.2v0.6H37C36.4,32.1,36.1,31.8,36.1,31.2z"/>
			<path d="M37.5,31v-1.8h-0.6v-0.6h0.5c0.1,0,0.2-0.1,0.2-0.2v-0.8h0.7v1h1v0.6h-1v1.8c0,0.3,0.2,0.5,0.5,0.5h0.5v0.6h-0.6
				C37.9,32.1,37.5,31.7,37.5,31z"/>
		</g>
		<g>
			<path d="M58.5,28.5h0.8l0.9,2.7h0l0.9-2.7h0.8l-1.4,3.5h-0.8L58.5,28.5z"/>
			<path d="M61.7,27.6c0-0.3,0.2-0.5,0.5-0.5s0.5,0.2,0.5,0.5c0,0.3-0.2,0.5-0.5,0.5C61.9,28,61.7,27.8,61.7,27.6z M61.8,28.5h0.7
				v3.5h-0.7V28.5z"/>
			<path d="M62.5,31.1h0.7c0,0.4,0.3,0.6,0.8,0.6c0.5,0,0.7-0.2,0.7-0.5c0-0.9-2.1-0.2-2.1-1.6c0-0.6,0.5-1.1,1.4-1.1
				c0.7,0,1.3,0.4,1.3,1.1h-0.6c0-0.3-0.3-0.5-0.7-0.5c-0.4,0-0.6,0.2-0.6,0.5c0,0.8,2.1,0,2.1,1.5c0,0.7-0.6,1.1-1.4,1.1
				C63,32.2,62.6,31.7,62.5,31.1z"/>
			<path d="M67.7,32.1l-1-1.7l-0.6,0.6v1.1h-0.7V27h0.7v3h0l1.4-1.5h0.9l-1.2,1.4l1.3,2.2C68.5,32.1,67.7,32.1,67.7,32.1z"/>
			<path d="M67.9,30.3c0-1.1,0.7-1.9,1.7-1.9c0.7,0,1.1,0.4,1.2,0.6h0v-0.5h0.7v3.5h-0.7v-0.5h0c-0.1,0.2-0.5,0.6-1.1,0.6
				C68.6,32.2,67.9,31.4,67.9,30.3z M70.8,30.3c0-0.8-0.5-1.2-1.1-1.2c-0.6,0-1.1,0.5-1.1,1.2c0,0.8,0.5,1.2,1.1,1.2
				C70.4,31.5,70.8,31,70.8,30.3z"/>
			<path d="M71.5,31.1h0.7c0,0.4,0.3,0.6,0.8,0.6c0.5,0,0.7-0.2,0.7-0.5c0-0.9-2.1-0.2-2.1-1.6c0-0.6,0.5-1.1,1.4-1.1
				c0.7,0,1.3,0.4,1.3,1.1h-0.6c0-0.3-0.3-0.5-0.7-0.5c-0.4,0-0.6,0.2-0.6,0.5c0,0.8,2.1,0,2.1,1.5c0,0.7-0.6,1.1-1.4,1.1
				C72,32.2,71.5,31.7,71.5,31.1z"/>
			<path d="M75.2,30.3c0-1.1,0.7-1.9,1.7-1.9c0.7,0,1.1,0.4,1.2,0.6h0v-0.5h0.7v3.5H78v-0.5h0c-0.1,0.2-0.5,0.6-1.1,0.6
				C75.9,32.2,75.2,31.4,75.2,30.3z M78.1,30.3c0-0.8-0.5-1.2-1.1-1.2c-0.6,0-1.1,0.5-1.1,1.2c0,0.8,0.5,1.2,1.1,1.2
				C77.7,31.5,78.1,31,78.1,30.3z"/>
			<path d="M79,28.5h0.7V29h0c0.1-0.2,0.5-0.6,1.1-0.6c1,0,1.7,0.8,1.7,1.8s-0.7,1.9-1.7,1.9c-0.7,0-1.1-0.4-1.2-0.6h0v2.1H79V28.5z
				 M81.8,30.3c0-0.8-0.5-1.2-1.1-1.2c-0.7,0-1.1,0.5-1.1,1.2c0,0.8,0.5,1.2,1.1,1.2C81.4,31.5,81.8,31,81.8,30.3z"/>
			<path d="M82.4,27.6c0-0.3,0.2-0.5,0.5-0.5c0.3,0,0.5,0.2,0.5,0.5c0,0.3-0.2,0.5-0.5,0.5C82.6,28,82.4,27.8,82.4,27.6z M82.6,28.5
				h0.7v3.5h-0.7V28.5z"/>
			<path d="M83.2,30.3c0-1.1,0.8-1.9,1.8-1.9c1.1,0,1.7,0.8,1.7,1.8v0.3h-2.8c0,0.6,0.5,1.1,1.1,1.1c0.5,0,0.8-0.2,1-0.6h0.7
				c-0.2,0.7-0.8,1.2-1.7,1.2C83.9,32.2,83.2,31.4,83.2,30.3z M86,30c0-0.6-0.5-0.9-1-0.9s-1,0.4-1.1,0.9H86z"/>
			<path d="M87.1,33h0.3c0.4,0,0.6-0.2,0.6-0.6v-3.9h0.7v3.9c0,0.8-0.5,1.2-1.2,1.2h-0.3L87.1,33L87.1,33z M87.9,27.6
				c0-0.3,0.2-0.5,0.5-0.5c0.3,0,0.5,0.2,0.5,0.5c0,0.3-0.2,0.5-0.5,0.5C88.1,28,87.9,27.8,87.9,27.6z"/>
			<path d="M92,32.5c-0.1,0.1-0.1,0.2-0.1,0.3s0.1,0.2,0.2,0.2h0.2v0.5H92c-0.3,0-0.6-0.2-0.6-0.6c0-0.2,0.1-0.3,0.2-0.5l0.2-0.3
				h-0.1v-0.5h0c-0.1,0.2-0.5,0.6-1.1,0.6c-1,0-1.7-0.8-1.7-1.8c0-1.1,0.7-1.9,1.7-1.9c0.7,0,1.1,0.4,1.2,0.6h0v-0.5h0.7v3.5
				L92,32.5z M91.7,30.3c0-0.8-0.5-1.2-1.1-1.2c-0.6,0-1.1,0.5-1.1,1.2c0,0.8,0.5,1.2,1.1,1.2C91.2,31.5,91.7,31,91.7,30.3z"/>
		</g>
	</g>
</g>
</svg>
