<svg xmlns="http://www.w3.org/2000/svg" width="33" height="22" viewBox="0 0 33 22">
    <path fill="#FFF" fill-rule="nonzero" d="M7.92 20.208h3.553c.308 0 .56.243.56.546a.553.553 0 0 1-.56.546H6.56a.57.57 0 0 1-.394-.158.538.538 0 0 1-.166-.399V16c0-.302.252-.546.56-.546.309 0 .56.244.56.546v3.443l9.085-8.792L7.12 1.858V5.3a.553.553 0 0 1-.56.546.553.553 0 0 1-.56-.546V.557l1.12.536h-.56A.553.553 0 0 1 6 .546C6 .244 6.252 0 6.56 0h4.913c.308 0 .56.244.56.546a.553.553 0 0 1-.56.547H7.92L17 9.88 27.045.159a.57.57 0 0 1 .79 0c.22.213.22.561 0 .775l-10.04 9.716 9.085 8.792V16c0-.302.251-.546.56-.546.308 0 .56.244.56.546v4.744l-.001.045a.555.555 0 0 1-.56.512h-4.912a.553.553 0 0 1-.56-.546c0-.303.252-.546.56-.546h3.553L17 11.42l-9.08 8.788zm19.52-14.36a.553.553 0 0 1-.56-.547V.546c0-.302.251-.546.56-.546.308 0 .56.244.56.546v4.755a.553.553 0 0 1-.56.546zm0-4.755h-4.913a.553.553 0 0 1-.56-.547c0-.302.252-.546.56-.546h4.913c.308 0 .56.244.56.546a.553.553 0 0 1-.56.547z"/>
</svg>
