<svg xmlns="http://www.w3.org/2000/svg" width="90" height="50" viewBox="0 0 90 50">
    <g fill="none" fill-rule="evenodd">
        <path stroke="#FFF" d="M9 .5A8.5 8.5 0 0 0 .5 9v32A8.5 8.5 0 0 0 9 49.5h72a8.5 8.5 0 0 0 8.5-8.5V9A8.5 8.5 0 0 0 81 .5H9z"/>
        <path fill="#FFF" fill-rule="nonzero" d="M20.684 23.646c0-1.674 1.566-2.61 3.366-2.61s2.988.702 4.374 2.25l-1.26.9c-.972-1.26-2.034-1.746-3.078-1.746-.99 0-1.728.432-1.728 1.188 0 .864.864.954 1.818 1.098l.738.108c1.998.288 3.564.774 3.564 2.61 0 1.764-1.62 2.916-3.888 2.916-2.502 0-3.906-1.476-4.59-2.772l1.512-.81c.558 1.332 1.692 2.142 3.132 2.142 1.26 0 2.16-.558 2.16-1.422 0-.918-1.134-.99-2.088-1.134l-.738-.108c-1.98-.288-3.294-.936-3.294-2.61zm9.666 10.062v-12.42h1.656v1.386h.252c.486-.81 1.296-1.638 3.024-1.638 2.322 0 4.14 1.926 4.14 4.662 0 2.736-1.818 4.662-4.14 4.662-1.728 0-2.538-.828-3.024-1.638h-.216v4.986H30.35zm4.5-4.86c1.692 0 2.88-1.134 2.88-3.15s-1.188-3.15-2.88-3.15c-1.728 0-2.808 1.206-2.808 3.15s1.08 3.15 2.808 3.15zm6.228-5.238c.63-1.368 2.034-2.574 4.194-2.574 2.376 0 3.906 1.386 3.906 3.51v5.562h-1.656v-1.386h-.252c-.378.792-1.296 1.638-3.114 1.638-1.98 0-3.258-1.08-3.258-2.664 0-1.602 1.098-2.466 3.366-2.682l3.258-.306v-.234c0-1.206-.846-1.926-2.286-1.926s-2.286.702-2.7 1.728l-1.458-.666zm1.53 4.014c0 .828.666 1.332 1.836 1.332 2.07 0 3.078-1.242 3.078-2.772v-.144l-3.078.288c-1.026.09-1.836.396-1.836 1.296zm8.406-1.926c0-2.7 1.944-4.662 4.572-4.662 2.376 0 3.924 1.458 4.284 3.42l-1.656.342c-.144-1.242-1.062-2.214-2.628-2.214-1.692 0-2.88 1.242-2.88 3.114 0 1.872 1.188 3.114 2.916 3.114 1.692 0 2.376-1.062 2.61-2.196l1.674.324c-.396 1.674-1.674 3.42-4.284 3.42-2.664 0-4.608-1.962-4.608-4.662zm10.188-.072c0-2.592 1.836-4.626 4.392-4.626 2.592 0 4.32 1.908 4.32 4.464v.846h-6.948c.108 1.584 1.224 2.574 2.808 2.574 1.296 0 2.052-.648 2.52-1.584l1.422.81c-.666 1.08-1.8 2.25-3.906 2.25-2.736 0-4.608-2.07-4.608-4.734zm1.764-.684h5.184c-.036-1.512-1.008-2.466-2.556-2.466s-2.502.9-2.628 2.466z"/>
    </g>
</svg>
