<svg xmlns="http://www.w3.org/2000/svg" width="185" height="43" viewBox="0 0 185 43">
    <path fill="#FFF" fill-rule="evenodd" d="M61.532 6.574v12.49h-2.278V1.688h2.036l.242 4.886zm41.27-1.516c-.452 0-.82-.137-1.102-.41-.283-.272-.424-.633-.424-1.082 0-.45.141-.814.424-1.095.282-.28.65-.421 1.102-.421.452 0 .824.14 1.115.42.29.282.437.647.437 1.096 0 .45-.146.81-.437 1.083-.29.272-.663.409-1.115.409zm-56.158 5.608v8.399h-2.4V1.688h2.4v8.183h.145l6.665-8.183h2.981l-7.198 8.424 7.853 8.953h-3.054l-7.247-8.4h-.145zm39.38.866v2.912c.033.738.348 1.456.946 2.154.597.698 1.34 1.047 2.229 1.047 1.067 0 1.87-.43 2.412-1.288.541-.858.811-1.953.811-3.285 0-1.396-.282-2.503-.848-3.321-.566-.819-1.39-1.228-2.471-1.228-.792 0-1.491.33-2.097.987-.606.658-.933 1.332-.981 2.022zM83.747 23.71V8.764c0-.545-.016-1.139-.048-1.781h2.133c.015.305.024.907.024 1.805H86c.888-1.348 2.092-2.021 3.612-2.021 1.615 0 2.883.61 3.805 1.829.92 1.22 1.38 2.711 1.38 4.476 0 1.797-.456 3.297-1.368 4.5-.914 1.204-2.145 1.805-3.697 1.805-1.55 0-2.746-.65-3.586-1.949H86c.016.562.025 1.107.025 1.636v4.646h-2.279zM72.4 15.864v-2.142c-1.196-.24-2.254-.353-3.175-.337-.775.016-1.386.225-1.83.625-.444.402-.666.923-.666 1.565 0 .658.201 1.167.605 1.528.404.361.986.542 1.746.542.646 0 1.272-.189 1.878-.566.606-.377 1.086-.782 1.442-1.215zm2.326 3.2h-2.302a16.96 16.96 0 0 0 .097-1.54H72.4c-1.163 1.236-2.529 1.853-4.096 1.853-1.18 0-2.109-.34-2.787-1.022-.679-.682-1.018-1.568-1.018-2.66 0-1.123.392-2.045 1.176-2.767.783-.722 1.813-1.091 3.09-1.108 1.178-.015 2.407.162 3.683.53v-1.3c0-.866-.23-1.532-.69-1.997-.46-.465-1.127-.698-2-.698-.84 0-1.487.209-1.939.626-.452.417-.663.923-.63 1.516h-2.447c.242-1.123.795-2.046 1.66-2.768.864-.722 1.982-1.083 3.356-1.083 1.438 0 2.602.37 3.49 1.107.889.738 1.333 1.838 1.333 3.297v6.017c0 .899.049 1.564.145 1.998zm38.918-9.373c-.542.858-.812 1.954-.812 3.284 0 1.397.287 2.504.86 3.322.574.818 1.402 1.228 2.485 1.228.791 0 1.486-.325 2.084-.975.597-.65.92-1.32.97-2.01v-2.936c-.033-.738-.348-1.456-.946-2.154s-1.341-1.047-2.23-1.047c-1.066 0-1.87.43-2.411 1.288zm2.072 9.59c-1.632 0-2.917-.61-3.853-1.829-.938-1.219-1.406-2.711-1.406-4.477 0-1.796.456-3.296 1.37-4.5.912-1.203 2.144-1.805 3.695-1.805 1.551 0 2.746.65 3.587 1.95h.145a56.43 56.43 0 0 1-.024-1.637V1.688h2.278v15.596c0 .866.017 1.46.049 1.78h-2.06a44.61 44.61 0 0 1-.024-1.78h-.146c-.872 1.332-2.077 1.997-3.611 1.997zm30.954-.914c-.89.673-2.02 1.01-3.393 1.01-1.245 0-2.32-.332-3.224-.999-.905-.665-1.39-1.632-1.454-2.9h2.351c0 .562.206 1.068.618 1.517.412.45 1.014.674 1.806.674.678 0 1.228-.165 1.648-.494.42-.328.63-.758.63-1.287 0-.497-.215-.903-.643-1.215-.428-.313-1.086-.582-1.975-.807-2.892-.706-4.338-1.933-4.338-3.682 0-1.075.412-1.926 1.236-2.55.824-.627 1.898-.94 3.224-.94 1.195 0 2.205.322 3.029.963.824.642 1.268 1.524 1.333 2.647h-2.303c-.032-.593-.25-1.067-.654-1.42-.404-.352-.896-.53-1.479-.53-.58 0-1.082.137-1.502.41-.42.273-.63.69-.63 1.252 0 .48.23.875.69 1.179.462.305 1.16.561 2.097.77 2.844.658 4.266 1.893 4.266 3.706 0 1.123-.445 2.022-1.333 2.696zM79.124 4.6c-.436 0-.792-.133-1.066-.398-.275-.264-.412-.613-.412-1.046 0-.434.141-.787.424-1.06.283-.272.634-.409 1.054-.409.437 0 .796.137 1.08.41.281.272.423.625.423 1.059 0 .433-.142.782-.424 1.046-.283.265-.642.398-1.079.398zm-1.139 14.464V6.983h2.278v12.082h-2.278zm22.576-9.868c-.606.594-.966 1.429-1.079 2.503l6.325-.048c0-.32-.044-.658-.133-1.01a4.127 4.127 0 0 0-.46-1.084c-.218-.369-.542-.67-.97-.902-.428-.233-.933-.349-1.514-.349-.841 0-1.563.297-2.17.89zm7.525 6.137c-.146 1.092-.687 2.046-1.624 2.865-.937.818-2.149 1.227-3.635 1.227-1.713 0-3.09-.594-4.133-1.781-1.042-1.187-1.563-2.76-1.563-4.717 0-1.749.509-3.23 1.527-4.44 1.018-1.212 2.359-1.818 4.023-1.818.856 0 1.62.141 2.29.421.67.281 1.212.65 1.624 1.107.413.458.743.983.994 1.577.25.594.408 1.188.473 1.78a8.261 8.261 0 0 1 0 1.782h-8.677c.016 1.3.331 2.346.945 3.14.614.795 1.487 1.192 2.618 1.192.743 0 1.377-.216 1.902-.65.525-.433.86-.995 1.006-1.685h2.23zM133 16.55c.703-.81 1.054-1.994 1.054-3.55 0-1.46-.348-2.595-1.042-3.406-.695-.81-1.56-1.215-2.593-1.215-.97 0-1.826.365-2.57 1.095-.743.73-1.114 1.913-1.114 3.55 0 1.347.315 2.475.945 3.381.63.907 1.543 1.36 2.739 1.36 1.018 0 1.878-.405 2.581-1.215zm1.818.999c-1.075 1.283-2.533 1.925-4.375 1.925-1.858 0-3.337-.63-4.435-1.89-1.099-1.259-1.648-2.78-1.648-4.56 0-.578.076-1.155.23-1.733a7.029 7.029 0 0 1 .715-1.708 6.232 6.232 0 0 1 1.175-1.48c.46-.426 1.034-.77 1.721-1.035a6.178 6.178 0 0 1 2.242-.398c.985 0 1.878.201 2.678.602.8.402 1.43.927 1.89 1.576.461.65.812 1.336 1.055 2.058.242.722.363 1.436.363 2.142 0 1.717-.537 3.217-1.611 4.5zm-25.724 12.15c.654-.681 1.394-1.022 2.218-1.022.549 0 1.066.112 1.55.337v2.07a3.018 3.018 0 0 0-1.356-.313c-1.1 0-1.98.465-2.642 1.396-.663.93-1.026 2.07-1.09 3.417v5.367h-2.303v-8.929c0-1.267-.049-2.318-.146-3.153h2.182l.12 3.153h.146c.226-.866.667-1.64 1.321-2.322zm17.66 11.252V28.869h2.28v12.082h-2.28zm16.16-7.365l6.326-.048c0-.32-.044-.657-.133-1.01a4.124 4.124 0 0 0-.46-1.083c-.219-.37-.542-.67-.97-.903-.428-.232-.933-.349-1.515-.349-.84 0-1.563.297-2.169.89-.605.594-.965 1.428-1.078 2.503zm8.58-.144a8.2 8.2 0 0 1 0 1.78h-8.676c.015 1.3.33 2.348.945 3.142.614.794 1.486 1.19 2.617 1.19.743 0 1.378-.216 1.903-.649.525-.433.86-.994 1.006-1.684h2.23c-.146 1.09-.687 2.045-1.625 2.864-.937.818-2.148 1.227-3.635 1.227-1.713 0-3.09-.593-4.132-1.78-1.042-1.188-1.563-2.76-1.563-4.718 0-1.749.509-3.229 1.527-4.44 1.018-1.212 2.359-1.818 4.023-1.818.856 0 1.62.14 2.29.421.67.281 1.212.65 1.624 1.108.412.457.743.983.994 1.576.25.594.407 1.187.472 1.781zm-23.6-9.867c.436 0 .796.137 1.079.409.282.273.423.626.423 1.059 0 .433-.141.782-.423 1.047-.283.264-.643.397-1.08.397-.436 0-.791-.133-1.066-.397-.274-.265-.412-.614-.412-1.047 0-.433.142-.786.425-1.059a1.46 1.46 0 0 1 1.054-.41zm-8.158 10.276c2.843.659 4.265 1.894 4.265 3.707 0 1.123-.444 2.021-1.333 2.695-.889.674-2.02 1.011-3.393 1.011-1.244 0-2.318-.333-3.223-1-.905-.664-1.39-1.632-1.454-2.9h2.35c0 .563.207 1.068.619 1.517.411.45 1.013.674 1.805.674.679 0 1.228-.164 1.648-.494.42-.328.63-.757.63-1.287 0-.497-.214-.903-.642-1.215-.428-.313-1.087-.582-1.975-.807-2.893-.705-4.338-1.933-4.338-3.682 0-1.074.412-1.925 1.236-2.55.824-.627 1.898-.94 3.223-.94 1.195 0 2.205.322 3.03.963.823.642 1.268 1.525 1.332 2.648h-2.302c-.033-.594-.25-1.067-.654-1.42s-.897-.53-1.479-.53c-.581 0-1.082.137-1.502.41-.42.273-.63.69-.63 1.25 0 .482.23.875.69 1.18.46.305 1.16.562 2.097.77zm15.78-8.591v3.61h3.441v1.732h-3.44v6.811c0 1.155.556 1.733 1.671 1.733.614 0 1.203-.12 1.77-.36v1.78c-.567.4-1.245.601-2.037.601-1.163 0-2.063-.328-2.702-.986-.638-.658-.957-1.573-.957-2.744v-6.835h-1.939v-1.733h1.987l.413-3.61h1.793zm-59.954-1.685c.436 0 .796.137 1.078.409.283.273.424.626.424 1.059 0 .433-.141.782-.424 1.047-.282.264-.642.397-1.078.397-.437 0-.792-.133-1.067-.397-.275-.265-.412-.614-.412-1.047 0-.433.141-.786.424-1.059a1.46 1.46 0 0 1 1.055-.41zM69.59 29.47c.437.305.792.766 1.067 1.384.275.618.412 1.36.412 2.226v7.87h-2.327v-7.918c0-.834-.186-1.484-.557-1.95-.372-.465-.897-.697-1.576-.697-.824 0-1.563.333-2.217.998-.655.666-1.103 1.513-1.345 2.54v7.027h-2.303V30.939c0-.802-.04-1.492-.121-2.07h2.35v2.07h.146c.162-.272.38-.561.655-.866.274-.305.715-.622 1.32-.95a4.026 4.026 0 0 1 1.952-.494c.42 0 .84.064 1.26.192.42.13.848.345 1.284.65zm-14.778 5.006V23.575h2.35v10.854c0 2.39-.597 4.135-1.793 5.235-1.196 1.098-2.747 1.648-4.653 1.648-1.988 0-3.563-.574-4.727-1.72-1.163-1.148-1.745-2.853-1.745-5.115V23.575h2.424V34.5c0 1.62.36 2.804 1.079 3.55.718.746 1.708 1.119 2.969 1.119 2.73 0 4.096-1.564 4.096-4.693zm39.128-.89l6.325-.049c0-.32-.044-.657-.133-1.01a4.124 4.124 0 0 0-.46-1.083c-.219-.37-.542-.67-.97-.903-.428-.232-.933-.349-1.515-.349-.84 0-1.563.297-2.169.89-.606.594-.965 1.428-1.078 2.503zm8.579-.145a8.2 8.2 0 0 1 0 1.78h-8.677c.016 1.3.332 2.348.946 3.142.613.794 1.486 1.19 2.617 1.19.743 0 1.378-.216 1.903-.649.525-.433.86-.994 1.006-1.684h2.23c-.146 1.09-.687 2.045-1.625 2.864-.937.818-2.148 1.227-3.635 1.227-1.713 0-3.09-.593-4.132-1.78-1.042-1.188-1.563-2.76-1.563-4.718 0-1.749.509-3.229 1.527-4.44 1.018-1.212 2.359-1.818 4.023-1.818.856 0 1.62.14 2.29.421.67.281 1.212.65 1.624 1.108.412.457.743.983.993 1.576.25.594.408 1.187.473 1.781zm-17.59 5.295l3.054-9.867h2.326L86.237 40.95H83.45L78.99 28.87h2.448l3.345 9.867h.146zM74.422 40.95V28.869h2.279v12.082h-2.279zm82.814-15.691v3.61h3.44v1.732h-3.44v6.811c0 1.155.557 1.733 1.672 1.733.614 0 1.203-.12 1.769-.36v1.78c-.566.4-1.244.601-2.036.601-1.163 0-2.064-.328-2.702-.986-.638-.658-.957-1.573-.957-2.744v-6.835h-1.94v-1.733h1.988l.412-3.61h1.794zm13.366 12.49v-2.142c-1.196-.24-2.254-.353-3.175-.336-.776.015-1.386.224-1.83.625-.445.401-.666.923-.666 1.564 0 .658.201 1.168.605 1.528.404.361.986.542 1.745.542.646 0 1.273-.188 1.88-.565.604-.377 1.085-.783 1.44-1.216zm2.181-4.813v6.017c0 .898.049 1.564.145 1.997h-2.302c.064-.658.097-1.171.097-1.54h-.121c-1.164 1.235-2.529 1.853-4.096 1.853-1.18 0-2.109-.34-2.787-1.023-.68-.682-1.018-1.568-1.018-2.66 0-1.122.392-2.045 1.175-2.767s1.814-1.091 3.09-1.107c1.18-.016 2.407.16 3.684.53v-1.3c0-.867-.23-1.532-.69-1.998-.46-.465-1.128-.698-2-.698-.84 0-1.487.209-1.939.626-.453.417-.663.923-.63 1.516h-2.447c.242-1.122.795-2.046 1.66-2.768.864-.721 1.982-1.083 3.356-1.083 1.438 0 2.601.37 3.49 1.108.889.738 1.333 1.837 1.333 3.297zm7.951.914c2.844.659 4.266 1.894 4.266 3.707 0 1.123-.445 2.021-1.333 2.695-.89.674-2.02 1.011-3.393 1.011-1.244 0-2.319-.333-3.224-1-.905-.664-1.39-1.632-1.454-2.9h2.351c0 .563.206 1.068.618 1.517.412.45 1.014.674 1.805.674.68 0 1.229-.164 1.649-.494.42-.328.63-.757.63-1.287 0-.497-.214-.903-.643-1.215-.428-.313-1.086-.582-1.975-.807-2.892-.705-4.338-1.933-4.338-3.682 0-1.074.412-1.925 1.236-2.55.824-.627 1.898-.94 3.224-.94 1.195 0 2.205.322 3.029.963.824.642 1.268 1.525 1.333 2.648h-2.302c-.033-.594-.251-1.067-.655-1.42s-.896-.53-1.478-.53c-.581 0-1.083.137-1.503.41-.42.273-.63.69-.63 1.25 0 .482.23.875.69 1.18.462.305 1.16.562 2.097.77zM9.84 28.307V39.08h7.157V28.965H11.21l.708-.78h5.948v9.9l1.055-1.128.004-9.945H11.01l-1.17 1.295zM0 23.857h28.728v4.88c0 7.875-6.428 14.26-14.358 14.263h-.011C6.429 42.997.002 36.614 0 28.74v-4.883zM22.98 7.306V6.127H21.8v1.178h-1.178V6.127h-1.18v1.178h-1.179V6.127h-1.18v2.35h5.897V7.304zm0 5.85l-1.18-1.95.59-.973.59-.975H21.8l-.589.974-.59-.974h-1.179l-.589.974-.59-.974h-1.18l.59.975.59.973-1.18 1.95h1.18l.295-.488.295-.487.294.487.295.487h1.18l.295-.487.294-.487.295.487.295.487h1.179zm0 1.958v-1.178H21.8v1.178h-1.178v-1.178h-1.18v1.178h-1.179v-1.178h-1.18v2.349h5.897v-1.17zm-4.17 3.126l.711-1.175h-1.504l-.778 1.178h-6.214l-.777-1.178H8.744l.71 1.175.71 1.174H18.1l.71-1.174zM5.285 13.935v2.349h5.896V13.934H10v1.18H8.823v-1.18H7.643v1.18h-1.18v-1.18H5.285zm5.306-3.703l.59-.975H10l-.59.974-.589-.974H7.643l-.59.974-.59-.974H5.285l.589.975.59.973-1.18 1.95h1.18l.295-.488.294-.487.295.487.295.487h1.18l.294-.487.295-.487.295.487.295.487h1.179L10 11.205l.59-.973zM5.285 6.127v2.35h5.896V6.126H10v1.178H8.823V6.127H7.643v1.178h-1.18V6.127H5.285zm9.834 8.453v1.704h1.18V6.127h-4.332v10.157h1.179V14.58a.984.984 0 0 1 .986-.98.984.984 0 0 1 .987.98zM10.002 2.998v2.35h8.261l-.003-1.175-.004-1.175h-1.179v1.178h-1.18V2.998h-1.179v1.178H13.54V2.998H12.36v1.178h-1.18V2.998h-1.178zM0 0h28.728v22.713H0V0zm13.146 9.278v-1.98h1.972v1.98h-1.972zm-5.503 1.928l.59-.975.59.975-.59.974-.59-.974zm11.8 0l.59-.975.589.975-.59.974-.59-.974zm-6.297 1.223v-1.98h1.972v1.98h-1.972z"/>
</svg>
